<?xml version="1.0" encoding="UTF-8"?>
<svg xmlns="http://www.w3.org/2000/svg" viewBox="0 0 1300 360" width="1300" height="360">
  <title>Animation Studio: Describe it. Get a looping SVG. One file that plays inside a README.</title>
  <desc>A README project card. Left: an identity panel. Right: five lines of a preset are typed and the pixel character they describe arrives and jumps; then a closing frame lists what ships: CSS keyframes only, outlined glyph text, and a reduced-motion still.</desc>
  <style>
    .cv-jump-1 {
      animation: kf-cv-jump-1 0.62s ease-in-out infinite;
      transform-origin: center bottom;
    }
    @keyframes kf-cv-jump-1 {
      0%, 100% { transform: translateY(0) scaleY(1) scaleX(1); }
      30% { transform: translateY(-16px) scaleY(1.1) scaleX(0.95); }
      50% { transform: translateY(-18px) scaleY(1.05) scaleX(0.98); }
      80% { transform: translateY(-5px) scaleY(0.95) scaleX(1.05); }
    }
    .cv-shadow-2 {
      animation: kf-cv-shadow-2 0.62s ease-in-out infinite;
    }
    @keyframes kf-cv-shadow-2 {
      0%, 100% { transform: scaleX(1); opacity: 0.25; }
      50% { transform: scaleX(0.4); opacity: 0.08; }
    }
    @keyframes tl-cv1{0%,3.846%{transform:translateX(0);animation-timing-function:steps(32,end)}9.441%,100%{transform:translateX(420px)}}
    .tl-cv1{transform:translateX(420px);animation:tl-cv1 13s linear infinite}
    @keyframes tl-cv2{0%,9.615%{transform:translateX(0);animation-timing-function:steps(41,end)}16.783%,100%{transform:translateX(420px)}}
    .tl-cv2{transform:translateX(420px);animation:tl-cv2 13s linear infinite}
    @keyframes tl-cv3{0%,15.385%{transform:translateX(0);animation-timing-function:steps(42,end)}22.727%,100%{transform:translateX(420px)}}
    .tl-cv3{transform:translateX(420px);animation:tl-cv3 13s linear infinite}
    @keyframes tl-cv4{0%,21.154%{transform:translateX(0);animation-timing-function:steps(43,end)}28.671%,100%{transform:translateX(420px)}}
    .tl-cv4{transform:translateX(420px);animation:tl-cv4 13s linear infinite}
    @keyframes tl-cv5{0%,26.923%{transform:translateX(0);animation-timing-function:steps(36,end)}33.217%,100%{transform:translateX(420px)}}
    .tl-cv5{transform:translateX(420px);animation:tl-cv5 13s linear infinite}
    @keyframes tl-on6{0%,23.462%{opacity:0}26.154%,100%{opacity:1}}
    .tl-on6{animation:tl-on6 13s linear infinite}
    @keyframes tl-on7{0%,62.308%{opacity:0}64.615%,100%{opacity:1}}
    .tl-on7{animation:tl-on7 13s linear infinite}
    @keyframes tl-on8{0%,65.385%{opacity:0}67.692%,100%{opacity:1}}
    .tl-on8{animation:tl-on8 13s linear infinite}
    @keyframes tl-on9{0%,68.462%{opacity:0}70.769%,100%{opacity:1}}
    .tl-on9{animation:tl-on9 13s linear infinite}
    @keyframes tl-kf10{0%,56.923%{opacity:0}60.000%,96.923%{opacity:1}100%{opacity:0}}
    .tl-kf10{animation:tl-kf10 13s linear infinite}
    @keyframes tl-sp11{0%,53.846%{opacity:1}56.923%,100%{opacity:0}}
    .tl-sp11{animation:tl-sp11 13s linear infinite}
    @media (prefers-reduced-motion: reduce) {
      * { animation: none !important; }
    }
  </style>
  <defs>
    <path id="g0004" d="M372 0L30 0L200 1760L797 1760L964 0L631 0L606 284L394 284L372 0ZM486 1460L419 565L579 565L502 1460L486 1460Z"/>
    <path id="g003r" d="M402 0L62 0L62 1760L402 1760L402 0Z"/>
    <path id="g005o" d="M498 -16L498 -16Q287 -16 176 112Q64 239 64 480L64 480L64 1316Q64 1542 175 1659Q285 1776 498 1776L498 1776Q711 1776 822 1659Q932 1542 932 1316L932 1316L932 480Q932 239 821 112Q709 -16 498 -16ZM501 308L501 308Q581 308 581 463L581 463L581 1322Q581 1452 503 1452L503 1452Q415 1452 415 1319L415 1319L415 461Q415 379 435 344Q455 308 501 308Z"/>
    <path id="g007f" d="M496 -16L496 -16Q255 -16 149 104Q42 224 42 486L42 486L42 658L390 658L390 438Q390 377 409 343Q427 308 473 308L473 308Q521 308 540 336Q558 364 558 428L558 428Q558 509 542 564Q526 618 487 668Q447 717 377 783L377 783L219 933Q42 1100 42 1315L42 1315Q42 1540 147 1658Q251 1776 449 1776L449 1776Q691 1776 793 1647Q894 1518 894 1255L894 1255L536 1255L536 1376Q536 1412 516 1432Q495 1452 460 1452L460 1452Q418 1452 399 1429Q379 1405 379 1368L379 1368Q379 1331 399 1288Q419 1245 478 1189L478 1189L681 994Q742 936 793 872Q844 807 875 722Q906 636 906 513L906 513Q906 265 815 125Q723 -16 496 -16Z"/>
    <path id="g00a6" d="M345 -16L345 -16Q220 -16 155 42Q89 100 65 201Q41 302 41 430L41 430Q41 567 68 655Q95 742 161 798Q226 854 341 893L341 893L563 969L563 1123Q563 1244 484 1244L484 1244Q412 1244 412 1146L412 1146L412 1056L64 1056Q63 1064 63 1077Q63 1089 63 1105L63 1105Q63 1329 169 1423Q274 1516 503 1516L503 1516Q623 1516 718 1474Q813 1431 869 1348Q924 1265 924 1143L924 1143L924 0L568 0L568 178Q542 84 482 34Q422 -16 345 -16ZM486 262L486 262Q530 262 546 299Q562 336 562 379L562 379L562 797Q488 767 447 722Q406 676 406 588L406 588L406 395Q406 262 486 262Z"/>
    <path id="g00f9" d="M367 -16L367 -16Q263 -16 202 22Q141 60 111 127Q81 194 72 284Q62 374 62 477L62 477L62 1129Q62 1302 124 1409Q185 1516 332 1516L332 1516Q441 1516 500 1470Q558 1423 590 1340L590 1340L590 1760L954 1760L954 0L590 0L590 159Q560 78 511 31Q461 -16 367 -16ZM504 264L504 264Q555 264 573 305Q590 346 590 452L590 452L590 1083Q590 1136 575 1188Q559 1239 506 1239L506 1239Q448 1239 433 1190Q418 1141 418 1083L418 1083L418 452Q418 264 504 264Z"/>
    <path id="g00gg" d="M492 -16L492 -16Q332 -16 237 44Q142 104 101 217Q60 330 60 489L60 489L60 1092Q60 1301 180 1409Q300 1516 510 1516L510 1516Q942 1516 942 1092L942 1092L942 983Q942 785 938 717L938 717L418 717L418 427Q418 387 423 349Q428 310 446 285Q463 260 502 260L502 260Q558 260 572 309Q586 357 586 435L586 435L586 579L942 579L942 494Q942 326 901 213Q859 99 761 42Q662 -16 492 -16ZM416 1097L416 895L586 895L586 1097Q586 1178 566 1214Q546 1249 506 1249L506 1249Q463 1249 440 1215Q416 1181 416 1097L416 1097Z"/>
    <path id="g00ix" d="M460 0L105 0L105 1161L40 1161L40 1434L105 1434L105 1536Q105 1778 347 1778L347 1778Q461 1778 531 1749L531 1749L531 1528Q506 1533 498 1533L498 1533Q467 1533 460 1511Q453 1488 453 1453L453 1453L453 1434L531 1434L531 1157L460 1157L460 0ZM1002 1592L644 1592L644 1890L1002 1890L1002 1592ZM1002 0L644 0L644 1500L1002 1500L1002 0Z"/>
    <path id="g00lo" d="M428 1592L70 1592L70 1890L428 1890L428 1592ZM428 0L70 0L70 1500L428 1500L428 0Z"/>
    <path id="g00ms" d="M468 1592L110 1592L110 1890L468 1890L468 1592ZM186 -260L186 -260Q72 -260 34 -234L34 -234L34 6Q52 1 67 1L67 1Q96 1 103 21Q110 41 110 72L110 72L110 1500L468 1500L468 82Q468 -78 405 -169Q341 -260 186 -260Z"/>
    <path id="g00nd" d="M436 0L72 0L72 1760L436 1760L436 0Z"/>
    <path id="g00og" d="M430 0L72 0L72 1500L422 1500L422 1326Q446 1418 504 1467Q562 1516 674 1516L674 1516Q764 1516 828 1475Q891 1433 917 1365L917 1365Q958 1439 1014 1478Q1069 1516 1172 1516L1172 1516Q1297 1516 1365 1463Q1432 1409 1459 1315Q1485 1220 1485 1096L1485 1096L1485 0L1128 0L1128 1102Q1128 1247 1054 1247L1054 1247Q1015 1247 994 1221Q973 1194 965 1155Q957 1116 957 1077L957 1077L957 0L600 0L600 1102Q600 1149 589 1196Q577 1243 530 1243L530 1243Q490 1243 468 1214Q446 1185 438 1143Q430 1100 430 1059L430 1059L430 0Z"/>
    <path id="g00p2" d="M430 0L72 0L72 1500L430 1500L430 1309Q450 1395 505 1456Q559 1516 656 1516L656 1516Q812 1516 883 1420Q953 1324 953 1157L953 1157L953 0L600 0L600 1120Q600 1164 582 1202Q564 1239 520 1239L520 1239Q479 1239 460 1211Q440 1182 435 1140Q430 1097 430 1055L430 1055L430 0Z"/>
    <path id="g00q2" d="M508 -16L508 -16Q60 -16 60 449L60 449L60 1051Q60 1263 179 1390Q298 1516 508 1516L508 1516Q719 1516 838 1390Q957 1263 957 1051L957 1051L957 449Q957 -16 508 -16ZM508 260L508 260Q553 260 573 293Q592 325 592 375L592 375L592 1108Q592 1239 508 1239L508 1239Q424 1239 424 1108L424 1108L424 375Q424 325 444 293Q463 260 508 260Z"/>
    <path id="g00sp" d="M436 -250L72 -250L72 1500L436 1500L436 1340Q469 1423 528 1470Q586 1516 695 1516L695 1516Q842 1516 903 1409Q963 1302 963 1129L963 1129L963 391Q963 276 931 184Q898 91 829 38Q759 -16 647 -16L647 -16Q501 -16 436 160L436 160L436 -250ZM521 263L521 263Q577 263 589 319Q600 375 600 457L600 457L600 1043Q600 1126 589 1182Q577 1237 521 1237L521 1237Q463 1237 450 1181Q436 1124 436 1043L436 1043L436 457Q436 376 450 320Q463 263 521 263Z"/>
    <path id="g00t0" d="M413 1L55 1L55 299L413 299L413 1Z"/>
    <path id="g00v6" d="M483 -16L483 -16Q39 -16 39 434L39 434L39 553L399 553L399 377Q399 326 419 297Q439 268 483 268L483 268Q561 268 561 385L561 385Q561 483 520 532Q479 580 420 625L420 625L229 772Q139 842 92 920Q45 998 45 1137L45 1137Q45 1266 107 1350Q168 1434 270 1475Q371 1516 489 1516L489 1516Q925 1516 925 1081L925 1081L925 1053L555 1053L555 1110Q555 1155 540 1197Q524 1239 479 1239L479 1239Q403 1239 403 1159L403 1159Q403 1078 467 1032L467 1032L689 870Q793 795 864 692Q934 589 934 418L934 418Q934 206 814 95Q693 -16 483 -16Z"/>
    <path id="g00wt" d="M380 -16L380 -16Q235 -16 185 46Q134 107 134 234L134 234L134 1169L33 1169L33 1442L134 1442L134 1760L482 1760L482 1442L583 1442L583 1169L482 1169L482 318Q482 281 494 266Q506 251 540 251L540 251Q564 251 583 255L583 255L583 11Q571 7 508 -4Q445 -16 380 -16Z"/>
    <path id="g00y8" d="M361 -16L361 -16Q241 -16 178 34Q114 84 91 174Q68 263 68 383L68 383L68 1500L428 1500L428 425Q428 335 442 300Q456 264 508 264L508 264Q564 264 579 314Q593 364 593 443L593 443L593 1500L950 1500L950 0L592 0L592 160Q558 74 511 29Q463 -16 361 -16Z"/>
    <path id="g010t" d="M447 -250L43 -250L43 -23L215 -23Q254 -23 254 4L254 4Q254 18 251 33L251 33L16 1500L359 1500L459 396L577 1500L922 1500L644 -78Q629 -163 587 -206Q544 -250 447 -250L447 -250Z"/>
    <path id="g1001" d="M133 0L28 0L285 700L394 700L651 0L544 0L483 173L194 173L133 0ZM455 253L339 580L223 253L455 253Z"/>
    <path id="g100e" d="M380 -12L380 -12Q277 -12 203 34Q128 79 88 161Q47 242 47 350L47 350Q47 457 88 539Q128 620 203 666Q277 712 380 712L380 712Q503 712 580 653Q656 594 677 487L677 487L567 487Q552 549 506 586Q459 623 380 623L380 623Q274 623 212 550Q149 477 149 350L149 350Q149 222 212 150Q274 77 380 77L380 77Q459 77 506 113Q552 148 567 209L567 209L677 209Q656 105 580 47Q503 -12 380 -12Z"/>
    <path id="g100j" d="M288 0L73 0L73 700L288 700Q411 700 491 658Q570 615 609 536Q647 457 647 349L647 349Q647 242 609 164Q570 85 491 43Q411 0 288 0L288 0ZM173 616L173 84L284 84Q381 84 438 116Q495 148 520 207Q544 266 544 349L544 349Q544 432 520 492Q495 552 438 584Q381 616 284 616L284 616L173 616Z"/>
    <path id="g100n" d="M515 0L73 0L73 700L515 700L515 618L173 618L173 394L485 394L485 314L173 314L173 82L515 82L515 0Z"/>
    <path id="g1010" d="M376 -12L376 -12Q277 -12 203 33Q129 78 88 159Q47 240 47 348L47 348Q47 455 89 537Q131 619 208 666Q285 712 391 712L391 712Q510 712 590 655Q670 597 693 495L693 495L579 495Q564 553 516 587Q467 620 390 620L390 620Q278 620 214 548Q149 475 149 348L149 348Q149 262 178 202Q207 141 260 109Q312 77 382 77L382 77Q487 77 541 138Q595 199 604 301L604 301L411 301L411 378L705 378L705 0L614 0L605 107Q569 49 516 19Q462 -12 376 -12Z"/>
    <path id="g101q" d="M173 0L73 0L73 700L191 700L428 227L664 700L783 700L783 0L683 0L683 525L466 98L389 98L173 524L173 0Z"/>
    <path id="g101r" d="M173 0L73 0L73 700L173 700L530 163L530 700L630 700L630 0L530 0L173 536L173 0Z"/>
    <path id="g101x" d="M389 -12L389 -12Q287 -12 210 34Q133 79 90 161Q47 243 47 350L47 350Q47 457 90 539Q133 620 210 666Q287 712 389 712L389 712Q491 712 568 666Q645 620 688 539Q730 457 730 350L730 350Q730 243 688 161Q645 79 568 34Q491 -12 389 -12ZM389 77L389 77Q461 77 515 110Q568 143 598 204Q628 265 628 350L628 350Q628 435 598 496Q568 557 515 590Q461 622 389 622L389 622Q317 622 263 590Q209 557 179 496Q149 435 149 350L149 350Q149 265 179 204Q209 143 263 110Q317 77 389 77Z"/>
    <path id="g102b" d="M173 0L73 0L73 700L310 700Q392 700 446 672Q499 644 525 597Q550 550 550 492L550 492Q550 427 516 374Q481 321 407 298L407 298L557 0L441 0L303 284L173 284L173 0ZM173 616L173 360L303 360Q378 360 413 397Q447 433 447 490L447 490Q447 548 413 582Q379 616 303 616L303 616L173 616Z"/>
    <path id="g102f" d="M302 -12L302 -12Q225 -12 168 16Q110 43 78 93Q45 142 45 210L45 210L150 210Q151 153 190 113Q229 72 302 72L302 72Q365 72 401 103Q437 133 437 181L437 181Q437 218 421 242Q404 265 375 281Q346 297 309 309Q271 321 230 335L230 335Q147 362 107 405Q66 448 66 517L66 517Q66 576 94 620Q122 663 173 688Q223 712 292 712L292 712Q360 712 411 687Q462 662 491 618Q519 573 520 515L520 515L414 515Q414 542 400 568Q386 594 358 611Q330 627 289 627L289 627Q238 628 205 601Q171 574 171 526L171 526Q171 484 195 462Q219 439 262 424Q305 409 361 390L361 390Q412 373 453 349Q494 324 518 286Q541 247 541 187L541 187Q541 135 515 90Q488 44 435 16Q381 -12 302 -12Z"/>
    <path id="g102l" d="M336 0L236 0L236 618L29 618L29 700L544 700L544 618L336 618L336 0Z"/>
    <path id="g1030" d="M400 0L280 0L20 700L128 700L340 104L554 700L660 700L400 0Z"/>
    <path id="g103i" d="M235 -12L235 -12Q172 -12 132 10Q91 31 71 66Q51 101 51 142L51 142Q51 216 108 259Q165 301 267 301L267 301L397 301Q397 432 281 432L281 432Q237 432 205 411Q172 389 164 347L164 347L64 347Q70 400 101 438Q131 475 179 496Q226 516 281 516L281 516Q386 516 442 461Q497 406 497 312L497 312L497 0L410 0L402 85Q380 44 340 16Q300 -12 235 -12ZM254 69L254 69Q297 69 329 92Q360 114 377 150Q394 186 395 227L395 227L395 230L276 230Q211 230 184 207Q156 184 156 149L156 149Q156 112 182 91Q208 69 254 69Z"/>
    <path id="g103u" d="M343 -12L343 -12Q281 -12 237 13Q193 38 168 77L168 77L158 0L68 0L68 720L168 720L168 425Q192 463 236 490Q279 516 343 516L343 516Q415 516 470 482Q525 447 556 388Q586 328 586 252L586 252Q586 175 556 116Q525 56 470 22Q415 -12 343 -12ZM327 75L327 75Q396 75 441 124Q485 172 485 252L485 252Q485 331 441 380Q396 429 327 429L327 429Q257 429 213 380Q169 331 169 252L169 252Q169 172 213 124Q257 75 327 75Z"/>
    <path id="g103v" d="M301 -12L301 -12Q228 -12 171 21Q114 54 82 114Q49 173 49 251L49 251Q49 330 82 390Q114 449 171 483Q228 516 301 516L301 516Q392 516 454 468Q516 420 534 338L534 338L430 338Q419 381 384 406Q348 430 300 430L300 430Q260 430 226 410Q192 389 172 350Q151 310 151 252L151 252Q151 194 172 154Q192 114 226 94Q260 73 300 73L300 73Q348 73 384 97Q419 121 430 165L430 165L534 165Q517 86 455 37Q392 -12 301 -12Z"/>
    <path id="g1040" d="M292 -12L292 -12Q220 -12 165 23Q110 57 80 117Q49 176 49 252L49 252Q49 329 80 388Q111 447 166 482Q221 516 293 516L293 516Q352 516 397 493Q442 469 467 426L467 426L467 720L567 720L567 0L478 0L467 78Q444 43 401 16Q358 -12 292 -12ZM308 75L308 75Q379 75 423 124Q466 172 466 252L466 252Q466 331 423 380Q379 429 308 429L308 429Q240 429 196 380Q151 331 151 252L151 252Q151 172 196 124Q240 75 308 75Z"/>
    <path id="g1044" d="M296 -12L296 -12Q224 -12 168 21Q112 53 81 112Q49 171 49 250L49 250Q49 330 81 390Q112 449 168 483Q224 516 298 516L298 516Q372 516 425 483Q478 450 507 396Q536 341 536 275L536 275Q536 265 536 254Q535 242 534 228L534 228L147 228Q152 151 196 111Q239 71 296 71L296 71Q344 71 376 92Q407 113 421 149L421 149L521 149Q501 80 443 34Q384 -12 296 -12ZM297 433L297 433Q241 433 199 399Q157 365 149 299L149 299L436 299Q433 362 394 398Q355 433 297 433Z"/>
    <path id="g104g" d="M195 0L95 0L95 419L21 419L21 504L95 504L95 572Q95 650 135 685Q174 720 246 720L246 720L305 720L305 635L262 635Q226 635 211 621Q195 606 195 570L195 570L195 504L316 504L316 419L195 419L195 0Z"/>
    <path id="g104h" d="M273 155L273 155Q234 155 200 165L200 165L154 121Q165 114 182 109Q198 103 228 99Q257 94 308 90L308 90Q410 82 454 44Q497 5 497 -61L497 -61Q497 -104 474 -143Q450 -183 401 -207Q351 -232 273 -232L273 -232Q168 -232 104 -192Q40 -152 40 -73L40 -73Q40 -42 56 -10Q71 21 109 48L109 48Q87 57 72 68Q57 79 45 90L45 90L45 113L132 202Q73 252 73 335L73 335Q73 385 97 426Q120 467 165 492Q210 516 273 516L273 516Q315 516 351 504L351 504L538 504L538 435L446 430Q472 388 472 335L472 335Q472 285 449 244Q425 203 381 179Q336 155 273 155ZM273 235L273 235Q322 235 351 261Q380 286 380 335L380 335Q380 384 351 410Q322 435 273 435L273 435Q224 435 194 410Q164 384 164 335L164 335Q164 286 194 261Q224 235 273 235ZM134 -63L134 -63Q134 -108 174 -130Q213 -153 273 -153L273 -153Q331 -153 367 -129Q402 -105 402 -64L402 -64Q402 -32 378 -10Q354 11 286 15L286 15Q237 18 198 25L198 25Q161 5 148 -18Q134 -41 134 -63Z"/>
    <path id="g104l" d="M168 0L68 0L68 720L168 720L168 422Q193 465 238 491Q282 516 336 516L336 516Q426 516 477 461Q528 406 528 297L528 297L528 0L429 0L429 286Q429 430 310 430L310 430Q250 430 209 388Q168 345 168 267L168 267L168 0Z"/>
    <path id="g104n" d="M126 599L126 599Q97 599 79 618Q60 636 60 663L60 663Q60 690 79 708Q97 725 126 725L126 725Q154 725 173 708Q192 690 192 663L192 663Q192 636 173 618Q154 599 126 599ZM175 0L75 0L75 504L175 504L175 0Z"/>
    <path id="g1051" d="M168 0L68 0L68 720L168 720L168 293L363 504L484 504L268 274L511 0L385 0L168 257L168 0Z"/>
    <path id="g1053" d="M168 0L68 0L68 720L168 720L168 0Z"/>
    <path id="g1059" d="M168 0L68 0L68 504L158 504L165 433Q189 472 229 494Q269 516 319 516L319 516Q376 516 418 493Q459 469 482 422L482 422Q508 466 554 491Q599 516 651 516L651 516Q743 516 795 462Q846 407 846 298L846 298L846 0L747 0L747 288Q747 358 718 394Q689 430 635 430L635 430Q580 430 544 388Q507 346 507 268L507 268L507 0L407 0L407 288Q407 358 379 394Q350 430 295 430L295 430Q241 430 205 388Q168 346 168 268L168 268L168 0Z"/>
    <path id="g105a" d="M168 0L68 0L68 504L158 504L164 418Q188 463 232 490Q276 516 333 516L333 516Q423 516 475 462Q527 407 527 298L527 298L527 0L427 0L427 288Q427 430 306 430L306 430Q247 430 208 389Q168 347 168 269L168 269L168 0Z"/>
    <path id="g105g" d="M298 -12L298 -12Q227 -12 171 21Q114 54 82 113Q49 172 49 252L49 252Q49 331 82 391Q115 450 172 483Q229 516 300 516L300 516Q372 516 428 483Q484 450 517 391Q549 331 549 252L549 252Q549 172 516 113Q483 54 427 21Q370 -12 298 -12ZM298 74L298 74Q339 74 373 94Q406 114 427 154Q447 193 447 252L447 252Q447 311 427 351Q407 390 374 410Q340 430 300 430L300 430Q260 430 226 410Q192 390 172 351Q151 311 151 252L151 252Q151 193 172 154Q192 114 226 94Q259 74 298 74Z"/>
    <path id="g105r" d="M168 -220L68 -220L68 504L158 504L168 426Q192 461 235 489Q277 516 344 516L344 516Q415 516 470 481Q525 446 556 387Q586 327 586 251L586 251Q586 175 555 116Q524 56 470 22Q415 -12 343 -12L343 -12Q283 -12 239 12Q194 35 168 77L168 77L168 -220ZM327 75L327 75Q396 75 441 124Q485 172 485 252L485 252Q485 331 441 380Q396 429 327 429L327 429Q257 429 213 380Q169 331 169 252L169 252Q169 172 213 124Q257 75 327 75Z"/>
    <path id="g105u" d="M168 0L68 0L68 504L158 504L167 409Q192 459 240 488Q288 516 358 516L358 516L358 410L322 410Q280 410 245 396Q210 382 189 348Q168 313 168 251L168 251L168 0Z"/>
    <path id="g105y" d="M263 -12L263 -12Q166 -12 108 34Q50 80 41 157L41 157L143 157Q150 121 180 95Q210 69 263 69L263 69Q312 69 336 90Q359 111 359 140L359 140Q359 181 329 196Q298 210 242 221L242 221Q196 230 155 246Q113 261 87 290Q61 318 61 365L61 365Q61 430 112 473Q162 516 250 516L250 516Q334 516 385 476Q436 436 445 363L445 363L348 363Q343 396 318 415Q292 434 249 434L249 434Q206 434 183 417Q160 400 160 372L160 372Q160 344 190 327Q219 310 274 299L274 299Q327 289 369 274Q411 259 436 230Q461 201 461 147L461 147Q461 76 408 32Q354 -12 263 -12Z"/>
    <path id="g1064" d="M358 0L276 0Q204 0 162 35Q120 70 120 160L120 160L120 419L33 419L33 504L120 504L132 630L220 630L220 504L363 504L363 419L220 419L220 159Q220 116 238 101Q255 85 300 85L300 85L358 85L358 0Z"/>
    <path id="g1068" d="M253 -12L253 -12Q164 -12 112 42Q60 96 60 205L60 205L60 504L160 504L160 216Q160 73 280 73L280 73Q339 73 379 115Q418 157 418 235L418 235L418 504L518 504L518 0L429 0L422 86Q399 40 355 14Q311 -12 253 -12Z"/>
    <path id="g106p" d="M128 0L20 0L194 252L20 504L128 504L260 308L393 504L500 504L326 252L500 0L393 0L260 197L128 0Z"/>
    <path id="g106q" d="M231 -220L126 -220L249 56L220 56L21 504L129 504L287 138L446 504L551 504L231 -220Z"/>
    <path id="g107x" d="M195 0L95 0L95 419L21 419L21 504L95 504L95 572Q95 650 135 685Q174 720 246 720L246 720L298 720L298 635L262 635Q226 635 211 621Q195 606 195 570L195 570L195 504L502 504L502 0L402 0L402 419L195 419L195 0ZM453 591L453 591Q425 591 406 610Q387 628 387 655L387 655Q387 682 406 700Q425 717 453 717L453 717Q482 717 501 700Q519 682 519 655L519 655Q519 628 501 610Q482 591 453 591Z"/>
    <path id="g109h" d="M108 -5L108 -5Q80 -5 61 14Q42 32 42 58L42 58Q42 85 61 104Q80 122 108 122L108 122Q137 122 155 104Q173 85 173 58L173 58Q173 32 155 14Q137 -5 108 -5Z"/>
    <path id="g2001" d="M142 0L50 0L240 730L361 730L550 0L459 0L411 194L190 194L142 0ZM264 496L208 270L392 270L336 495Q320 559 311 602Q302 645 300 658L300 658Q298 645 289 602Q280 559 264 496L264 496Z"/>
    <path id="g200q" d="M315 0L93 0L93 730L300 730Q400 730 457 680Q513 630 513 541L513 541Q513 485 478 440Q442 395 385 384L385 384L385 381Q428 376 461 351Q493 326 512 288Q530 249 530 203L530 203Q530 109 473 55Q415 0 315 0L315 0ZM181 649L181 419L299 419Q357 419 391 450Q424 481 424 534L424 534Q424 587 391 618Q358 649 300 649L300 649L181 649ZM181 341L181 81L305 81Q368 81 405 115Q441 148 441 206L441 206Q441 266 405 304Q368 341 305 341L305 341L181 341Z"/>
    <path id="g200r" d="M308 -10L308 -10Q208 -10 150 46Q92 102 92 200L92 200L92 530Q92 628 150 684Q208 740 308 740L308 740Q406 740 464 684Q522 627 522 530L522 530L432 530Q432 592 400 626Q367 659 308 659L308 659Q249 659 216 626Q182 592 182 530L182 530L182 200Q182 138 216 105Q249 71 308 71L308 71Q367 71 400 105Q432 138 432 200L432 200L522 200Q522 103 464 47Q406 -10 308 -10Z"/>
    <path id="g2011" d="M520 0L100 0L100 730L520 730L520 648L189 648L189 422L485 422L485 342L189 342L189 82L520 82L520 0Z"/>
    <path id="g201m" d="M304 -10L304 -10Q204 -10 146 46Q88 102 88 200L88 200L88 530Q88 628 146 684Q204 740 304 740L304 740Q402 740 460 684Q518 627 518 530L518 530L428 530Q428 592 396 626Q363 659 304 659L304 659Q245 659 212 626Q178 593 178 531L178 531L178 200Q178 138 212 104Q245 70 304 70L304 70Q363 70 396 104Q428 138 428 200L428 200L428 300L280 300L280 382L518 382L518 200Q518 103 460 47Q402 -10 304 -10Z"/>
    <path id="g201t" d="M183 0L93 0L93 730L183 730L183 418L417 418L417 730L507 730L507 0L417 0L417 336L183 336L183 0Z"/>
    <path id="g201w" d="M495 0L105 0L105 82L254 82L254 648L105 648L105 730L495 730L495 648L346 648L346 82L495 82L495 0Z"/>
    <path id="g202b" d="M270 -10L270 -10Q165 -10 105 49Q45 108 45 210L45 210L135 210Q135 143 171 107Q206 70 270 70L270 70Q334 70 370 107Q405 143 405 210L405 210L405 730L495 730L495 210Q495 108 435 49Q374 -10 270 -10Z"/>
    <path id="g202d" d="M182 0L92 0L92 730L182 730L182 416L290 416L452 730L550 730L369 378L560 0L457 0L287 337L182 337L182 0Z"/>
    <path id="g202f" d="M550 0L130 0L130 730L220 730L220 82L550 82L550 0Z"/>
    <path id="g202l" d="M159 0L72 0L72 730L205 730L298 414L395 730L528 730L528 0L441 0L441 345Q441 394 443 458Q444 521 447 586Q450 651 454 703L454 703L336 326L258 326L145 694Q153 620 156 532Q159 444 159 345L159 345L159 0Z"/>
    <path id="g202m" d="M177 0L90 0L90 730L210 730L433 105Q431 130 429 167Q426 203 425 244Q423 284 423 320L423 320L423 730L510 730L510 0L390 0L168 625Q170 601 172 565Q174 528 176 488Q177 447 177 410L177 410L177 0Z"/>
    <path id="g202s" d="M300 -10L300 -10Q202 -10 145 47Q88 104 88 210L88 210L88 520Q88 626 145 683Q202 740 300 740L300 740Q398 740 455 683Q512 626 512 521L512 521L512 210Q512 104 455 47Q398 -10 300 -10ZM300 71L300 71Q359 71 391 105Q422 138 422 200L422 200L422 530Q422 592 391 626Q359 659 300 659L300 659Q242 659 210 626Q178 592 178 530L178 530L178 200Q178 138 210 105Q242 71 300 71Z"/>
    <path id="g203j" d="M182 0L92 0L92 730L327 730Q429 730 490 672Q550 613 550 515L550 515Q550 417 490 359Q429 300 327 300L327 300L182 300L182 0ZM182 649L182 381L327 381Q386 381 422 418Q457 454 457 515L457 515Q457 577 422 613Q386 649 327 649L327 649L182 649Z"/>
    <path id="g203m" d="M182 0L93 0L93 730L318 730Q383 730 432 704Q481 677 508 630Q535 583 535 520L535 520Q535 446 497 393Q459 340 396 319L396 319L545 0L446 0L303 310L182 310L182 0ZM182 649L182 391L318 391Q374 391 408 427Q442 462 442 520L442 520Q442 579 408 614Q374 649 318 649L318 649L182 649Z"/>
    <path id="g203q" d="M304 -10L304 -10Q198 -10 135 46Q72 102 72 200L72 200L162 200Q162 139 201 105Q240 70 304 70L304 70Q366 70 403 106Q440 142 440 200L440 200Q440 244 417 277Q393 309 349 321L349 321L238 352Q169 372 130 424Q90 475 90 545L90 545Q90 603 116 647Q142 691 189 716Q236 740 297 740L297 740Q359 740 407 716Q454 691 481 648Q508 604 508 547L508 547L418 547Q418 597 384 629Q350 660 297 660L297 660Q244 660 211 629Q178 597 178 547L178 547Q178 507 200 479Q221 450 260 439L260 439L374 407Q447 387 488 332Q528 276 528 200L528 200Q528 104 467 47Q406 -10 304 -10Z"/>
    <path id="g203x" d="M345 0L255 0L255 648L55 648L55 730L545 730L545 648L345 648L345 0Z"/>
    <path id="g2042" d="M300 -10L300 -10Q198 -10 144 47Q90 103 90 200L90 200L90 730L180 730L180 200Q180 140 210 105Q239 70 300 70L300 70Q360 70 390 105Q420 140 420 200L420 200L420 730L510 730L510 200Q510 102 457 46Q403 -10 300 -10Z"/>
    <path id="g204q" d="M361 0L238 0L50 730L142 730L267 233Q280 181 289 137Q297 93 301 70L301 70Q305 93 315 138Q324 182 337 234L337 234L457 730L550 730L361 0Z"/>
    <path id="g204r" d="M220 0L107 0L20 730L103 730L160 190Q164 157 166 122Q168 86 169 65L169 65Q171 86 175 122Q178 157 182 190L182 190L254 730L351 730L417 190Q421 157 425 122Q429 86 431 65L431 65Q433 86 436 122Q438 157 442 190L442 190L501 730L580 730L491 0L378 0L312 550Q308 584 306 617Q304 649 302 667L302 667Q300 649 298 617Q296 584 291 550L291 550L220 0Z"/>
    <path id="g205i" d="M252 -10L252 -10Q167 -10 117 38Q67 85 67 162L67 162Q67 213 90 251Q113 289 154 311Q195 332 248 332L248 332L418 332L418 375Q418 482 301 482L301 482Q249 482 217 463Q185 444 183 410L183 410L93 410Q98 475 154 518Q209 560 301 560L301 560Q401 560 455 512Q508 464 508 378L508 378L508 0L419 0L419 100L417 100Q409 49 366 20Q323 -10 252 -10ZM274 66L274 66Q340 66 379 98Q418 130 418 185L418 185L418 262L258 262Q214 262 187 236Q159 209 159 165L159 165Q159 119 190 93Q220 66 274 66Z"/>
    <path id="g2067" d="M332 -10L332 -10Q270 -10 230 21Q190 51 183 105L183 105L182 105L182 0L92 0L92 730L182 730L182 570L180 445L181 445Q189 498 230 529Q270 560 332 560L332 560Q415 560 464 505Q513 450 513 355L513 355L513 194Q513 100 464 45Q415 -10 332 -10ZM302 68L302 68Q359 68 391 98Q423 128 423 195L423 195L423 355Q423 423 391 453Q359 482 302 482L302 482Q247 482 215 447Q182 412 182 350L182 350L182 200Q182 138 215 103Q247 68 302 68Z"/>
    <path id="g2068" d="M308 -10L308 -10Q208 -10 148 46Q88 102 88 200L88 200L88 350Q88 448 148 504Q208 560 308 560L308 560Q403 560 462 509Q520 458 523 370L523 370L433 370Q430 423 397 452Q364 480 308 480L308 480Q249 480 214 447Q178 413 178 351L178 351L178 200Q178 138 214 104Q249 70 308 70L308 70Q364 70 397 99Q430 128 433 180L433 180L523 180Q520 92 462 41Q403 -10 308 -10Z"/>
    <path id="g206e" d="M268 -10L268 -10Q186 -10 137 45Q87 100 87 194L87 194L87 355Q87 450 136 505Q185 560 268 560L268 560Q330 560 371 529Q411 498 419 445L419 445L420 445L418 570L418 730L508 730L508 0L418 0L418 105L417 105Q410 51 370 21Q330 -10 268 -10ZM298 68L298 68Q354 68 386 103Q418 138 418 200L418 200L418 350Q418 412 386 447Q354 482 298 482L298 482Q241 482 209 453Q177 423 177 355L177 355L177 195Q177 128 209 98Q241 68 298 68Z"/>
    <path id="g206i" d="M300 -10L300 -10Q203 -10 144 49Q84 107 84 210L84 210L84 340Q84 443 144 502Q203 560 300 560L300 560Q365 560 414 534Q462 508 489 461Q516 414 516 350L516 350L516 252L172 252L172 200Q172 139 207 104Q242 68 300 68L300 68Q350 68 383 88Q415 107 422 140L422 140L512 140Q503 71 445 31Q387 -10 300 -10ZM172 350L172 322L428 322L428 350Q428 415 395 451Q361 486 300 486L300 486Q239 486 206 451Q172 415 172 350L172 350Z"/>
    <path id="g207a" d="M182 0L92 0L92 730L182 730L182 445L183 445Q190 500 228 530Q266 560 329 560L329 560Q412 560 461 509Q510 458 510 370L510 370L510 0L420 0L420 355Q420 417 389 451Q357 484 303 484L303 484Q247 484 215 449Q182 414 182 350L182 350L182 0Z"/>
    <path id="g207d" d="M555 0L85 0L85 82L280 82L280 468L105 468L105 550L370 550L370 82L555 82L555 0ZM315 649L315 649Q282 649 263 666Q244 683 244 712L244 712Q244 742 263 760Q282 777 315 777L315 777Q348 777 367 760Q386 742 386 712L386 712Q386 683 367 666Q348 649 315 649Z"/>
    <path id="g207t" d="M214 -180L90 -180L90 -98L214 -98Q276 -98 311 -64Q345 -30 345 31L345 31L345 468L85 468L85 550L435 550L435 31Q435 -66 375 -123Q315 -180 214 -180L214 -180ZM380 649L380 649Q347 649 328 666Q309 683 309 712L309 712Q309 742 328 760Q347 777 380 777L380 777Q413 777 432 760Q451 742 451 712L451 712Q451 683 432 666Q413 649 380 649Z"/>
    <path id="g207z" d="M550 0L380 0Q307 0 264 43Q220 85 220 155L220 155L220 648L30 648L30 730L310 730L310 155Q310 121 329 102Q348 82 380 82L380 82L550 82L550 0Z"/>
    <path id="g2086" d="M144 0L60 0L60 550L138 550L138 477L140 477Q145 514 170 537Q194 560 232 560L232 560Q268 560 293 539Q318 518 329 482L329 482L330 482Q337 518 362 539Q386 560 424 560L424 560Q477 560 509 521Q540 481 540 418L540 418L540 0L456 0L456 419Q456 452 440 472Q424 491 396 491L396 491Q369 491 353 472Q337 453 337 420L337 420L337 0L263 0L263 419Q263 452 247 472Q231 491 204 491L204 491Q176 491 160 472Q144 453 144 420L144 420L144 0Z"/>
    <path id="g2087" d="M182 0L92 0L92 550L182 550L182 445L183 445Q190 500 228 530Q266 560 329 560L329 560Q412 560 461 509Q510 458 510 370L510 370L510 0L420 0L420 354Q420 417 389 451Q357 484 303 484L303 484Q247 484 215 449Q182 414 182 350L182 350L182 0Z"/>
    <path id="g208e" d="M300 -8L300 -8Q201 -8 143 50Q84 108 84 212L84 212L84 338Q84 443 142 501Q200 558 300 558L300 558Q400 558 458 501Q516 443 516 338L516 338L516 212Q516 108 458 50Q399 -8 300 -8ZM300 72L300 72Q359 72 393 105Q426 138 426 202L426 202L426 348Q426 412 393 445Q359 478 300 478L300 478Q242 478 208 445Q174 412 174 348L174 348L174 202Q174 138 208 105Q242 72 300 72Z"/>
    <path id="g2095" d="M182 -180L92 -180L92 550L182 550L182 445L183 445Q190 499 230 530Q270 560 332 560L332 560Q415 560 464 506Q513 451 513 356L513 356L513 195Q513 100 464 45Q415 -10 332 -10L332 -10Q270 -10 230 21Q190 52 183 105L183 105L180 105L182 -20L182 -180ZM302 68L302 68Q359 68 391 98Q423 128 423 195L423 195L423 355Q423 423 391 453Q359 482 302 482L302 482Q247 482 215 447Q182 412 182 350L182 350L182 200Q182 138 215 103Q247 68 302 68Z"/>
    <path id="g2098" d="M202 0L112 0L112 550L202 550L202 445L204 445Q211 498 249 529Q287 560 351 560L351 560Q437 560 484 509Q530 457 530 362L530 362L530 315L440 315L440 362Q440 482 323 482L323 482Q264 482 233 448Q202 414 202 350L202 350L202 0Z"/>
    <path id="g209c" d="M322 -8L278 -8Q186 -8 136 34Q85 75 85 151L85 151L175 151Q175 113 202 92Q229 70 278 70L278 70L322 70Q372 70 400 92Q427 114 427 154L427 154Q427 225 362 234L362 234L210 256Q154 264 123 303Q92 341 92 404L92 404Q92 476 142 517Q191 558 278 558L278 558L322 558Q402 558 453 519Q503 479 507 415L507 415L416 415Q414 444 389 463Q363 482 322 482L322 482L278 482Q232 482 206 461Q180 440 180 404L180 404Q180 346 233 338L233 338L375 318Q515 298 515 154L515 154Q515 77 465 35Q414 -8 322 -8L322 -8Z"/>
    <path id="g209k" d="M515 0L355 0Q287 0 246 40Q205 79 205 145L205 145L205 468L47 468L47 550L205 550L205 705L295 705L295 550L520 550L520 468L295 468L295 145Q295 117 312 100Q328 82 355 82L355 82L515 82L515 0Z"/>
    <path id="g209p" d="M299 -10L299 -10Q204 -10 147 47Q90 103 90 200L90 200L90 550L180 550L180 200Q180 140 212 105Q244 69 299 69L299 69Q355 69 388 105Q420 140 420 200L420 200L420 550L510 550L510 200Q510 103 452 47Q394 -10 299 -10Z"/>
    <path id="g20ad" d="M359 0L241 0L54 550L151 550L271 180Q282 147 290 117Q298 86 302 69L302 69Q307 86 314 117Q321 147 331 180L331 180L451 550L546 550L359 0Z"/>
    <path id="g20ae" d="M220 0L121 0L31 550L109 550L165 162Q168 140 171 114Q174 87 175 70L175 70Q177 87 180 114Q182 140 186 162L186 162L255 550L345 550L414 162Q418 140 422 114Q425 87 426 70L426 70Q428 87 431 114Q434 140 437 162L437 162L495 550L569 550L475 0L376 0L313 380Q309 408 306 440Q302 471 300 488L300 488Q299 471 295 440Q291 408 286 380L286 380L220 0Z"/>
    <path id="g20aj" d="M156 0L50 0L245 283L62 550L168 550L277 380Q284 369 291 356Q297 343 301 335L301 335Q304 343 311 356Q317 369 324 380L324 380L433 550L539 550L356 282L550 0L444 0L326 180Q319 191 313 206Q306 220 301 229L301 229Q297 220 290 206Q282 191 274 180L274 180L156 0Z"/>
    <path id="g20ak" d="M272 -180L178 -180L259 34L54 550L151 550L281 210Q289 190 296 168Q303 146 306 130L306 130Q309 146 316 168Q323 190 330 210L330 210L451 550L546 550L272 -180Z"/>
    <path id="g20p8" d="M300 -10L300 -10Q263 -10 241 12Q218 34 218 69L218 69Q218 106 241 129Q263 152 300 152L300 152Q337 152 360 129Q382 106 382 69L382 69Q382 34 360 12Q337 -10 300 -10Z"/>
    <path id="g20p9" d="M303 -160L210 -160L265 146L373 146L303 -160Z"/>
    <path id="g20pa" d="M300 412L300 412Q259 412 238 432Q217 452 217 486L217 486Q217 520 238 540Q259 560 300 560L300 560Q341 560 362 540Q383 520 383 486L383 486Q383 452 362 432Q341 412 300 412ZM300 -10L300 -10Q259 -10 238 10Q217 30 217 64L217 64Q217 98 238 118Q259 138 300 138L300 138Q341 138 362 118Q383 98 383 64L383 64Q383 30 362 10Q341 -10 300 -10Z"/>
    <path id="g20ph" d="M300 260L300 260Q263 260 241 282Q218 304 218 339L218 339Q218 376 241 399Q263 422 300 422L300 422Q337 422 360 399Q382 376 382 339L382 339Q382 304 360 282Q337 260 300 260Z"/>
    <path id="g20q3" d="M485 -33L485 -120Q342 -88 264 14Q185 116 185 270L185 270L185 450Q185 604 264 706Q342 808 485 840L485 840L485 753Q421 738 374 696Q326 654 301 592Q275 529 275 450L275 450L275 270Q275 192 301 129Q326 66 374 24Q421 -18 485 -33L485 -33Z"/>
    <path id="g20q4" d="M115 -120L115 -120L115 -33Q180 -18 227 24Q274 66 300 129Q325 192 325 270L325 270L325 450Q325 529 300 592Q274 654 227 696Q180 738 115 753L115 753L115 840Q258 808 337 706Q415 604 415 450L415 450L415 270Q415 116 337 14Q258 -88 115 -120Z"/>
    <path id="g20q5" d="M505 -110L460 -110Q372 -110 320 -66Q268 -23 275 56L275 56L290 220Q295 273 275 297Q255 320 190 320L190 320L75 320L75 400L190 400Q255 400 275 424Q295 447 290 500L290 500L275 664Q268 743 320 787Q372 830 460 830L460 830L505 830L505 750L460 750Q413 750 387 729Q361 707 365 664L365 664L380 500Q385 441 352 406Q319 370 244 363L244 363Q319 356 352 317Q385 278 380 220L380 220L365 56Q361 13 387 -8Q413 -30 460 -30L460 -30L505 -30L505 -110Z"/>
    <path id="g20q6" d="M140 -110L95 -110L95 -30L140 -30Q187 -30 215 -8Q242 13 235 56L235 56L210 220Q201 277 230 317Q259 356 310 365L310 365Q259 373 230 408Q201 443 210 500L210 500L235 664Q242 707 215 729Q187 750 140 750L140 750L95 750L95 830L140 830Q199 830 244 811Q288 791 311 754Q333 717 325 664L325 664L300 500Q292 447 314 424Q335 400 400 400L400 400L525 400L525 320L400 320Q336 320 314 297Q292 273 300 220L300 220L325 56Q333 4 311 -33Q288 -71 244 -90Q199 -110 140 -110L140 -110Z"/>
    <path id="g210k" d="M515 410L85 410L85 490L515 490L515 410ZM515 170L85 170L85 250L515 250L515 170Z"/>
    <clipPath id="pc-editor"><rect x="525" y="58" width="418" height="273"/></clipPath>
    <clipPath id="pc-card"><rect width="1300" height="360" rx="20"/></clipPath>
  </defs>
<g clip-path="url(#pc-card)">
<rect x="500" width="800" height="360" fill="#E2E2DF"/>
  <g class="tl-sp11" opacity="0"><rect x="524" y="28" width="420" height="304" rx="12" fill="#F7F6F2" stroke="#070607" stroke-width="1" stroke-opacity=".18"/><rect x="538" y="39" width="8" height="8" fill="#524AE9"/><g fill="#5B5B59" transform="translate(554 47.5) scale(0.011 -0.011)"><use href="#g2095"/><use href="#g2098" x="600"/><use href="#g206i" x="1200"/><use href="#g209c" x="1800"/><use href="#g206i" x="2400"/><use href="#g209k" x="3000"/><use href="#g20p8" x="3600"/><use href="#g207t" x="4200"/><use href="#g209c" x="4800"/></g><g clip-path="url(#pc-editor)"><g fill="#070607" transform="translate(544 92) scale(0.011 -0.011)"><use href="#g2068"/><use href="#g208e" x="600"/><use href="#g2087" x="1200"/><use href="#g209c" x="1800"/><use href="#g209k" x="2400"/><use href="#g207t" x="3600"/><use href="#g209p" x="4200"/><use href="#g2086" x="4800"/><use href="#g2095" x="5400"/><use href="#g210k" x="6600"/></g><g fill="#524AE9" transform="translate(629.8 92) scale(0.011 -0.011)"><use href="#g2086"/><use href="#g208e" x="600"/><use href="#g209k" x="1200"/><use href="#g207d" x="1800"/><use href="#g208e" x="2400"/><use href="#g2087" x="3000"/><use href="#g20p8" x="3600"/><use href="#g2068" x="4200"/><use href="#g2098" x="4800"/><use href="#g206i" x="5400"/><use href="#g205i" x="6000"/><use href="#g209k" x="6600"/><use href="#g206i" x="7200"/><use href="#g202b" x="7800"/><use href="#g209p" x="8400"/><use href="#g2086" x="9000"/><use href="#g2095" x="9600"/></g><g fill="#070607" transform="translate(742 92) scale(0.011 -0.011)"><use href="#g20q3"/><use href="#g20q4" x="600"/></g><rect class="tl-cv1" x="543" y="78" width="420" height="20" fill="#F7F6F2"/><g fill="#070607" transform="translate(544 118) scale(0.011 -0.011)"><use href="#g2068"/><use href="#g208e" x="600"/><use href="#g2087" x="1200"/><use href="#g209c" x="1800"/><use href="#g209k" x="2400"/><use href="#g209c" x="3600"/><use href="#g207a" x="4200"/><use href="#g205i" x="4800"/><use href="#g206e" x="5400"/><use href="#g208e" x="6000"/><use href="#g20ae" x="6600"/><use href="#g210k" x="7800"/></g><g fill="#524AE9" transform="translate(643 118) scale(0.011 -0.011)"><use href="#g2086"/><use href="#g208e" x="600"/><use href="#g209k" x="1200"/><use href="#g207d" x="1800"/><use href="#g208e" x="2400"/><use href="#g2087" x="3000"/><use href="#g20p8" x="3600"/><use href="#g2068" x="4200"/><use href="#g2098" x="4800"/><use href="#g206i" x="5400"/><use href="#g205i" x="6000"/><use href="#g209k" x="6600"/><use href="#g206i" x="7200"/><use href="#g203q" x="7800"/><use href="#g207a" x="8400"/><use href="#g205i" x="9000"/><use href="#g206e" x="9600"/><use href="#g208e" x="10200"/><use href="#g20ae" x="10800"/><use href="#g203q" x="11400"/><use href="#g2068" x="12000"/><use href="#g205i" x="12600"/><use href="#g207z" x="13200"/><use href="#g206i" x="13800"/></g><g fill="#070607" transform="translate(801.4 118) scale(0.011 -0.011)"><use href="#g20q3"/><use href="#g20q4" x="600"/></g><rect class="tl-cv2" x="543" y="104" width="420" height="20" fill="#F7F6F2"/><g fill="#070607" transform="translate(544 144) scale(0.011 -0.011)"><use href="#g2068"/><use href="#g208e" x="600"/><use href="#g2087" x="1200"/><use href="#g209c" x="1800"/><use href="#g209k" x="2400"/><use href="#g207a" x="3600"/><use href="#g206i" x="4200"/><use href="#g2098" x="4800"/><use href="#g208e" x="5400"/><use href="#g210k" x="6600"/></g><g fill="#524AE9" transform="translate(629.8 144) scale(0.011 -0.011)"><use href="#g209c"/><use href="#g207a" x="600"/><use href="#g205i" x="1200"/><use href="#g2095" x="1800"/><use href="#g206i" x="2400"/><use href="#g209c" x="3000"/><use href="#g20p8" x="3600"/><use href="#g2068" x="4200"/><use href="#g2098" x="4800"/><use href="#g206i" x="5400"/><use href="#g205i" x="6000"/><use href="#g209k" x="6600"/><use href="#g206i" x="7200"/><use href="#g203j" x="7800"/><use href="#g207d" x="8400"/><use href="#g20aj" x="9000"/><use href="#g206i" x="9600"/><use href="#g207z" x="10200"/><use href="#g200r" x="10800"/><use href="#g207a" x="11400"/><use href="#g205i" x="12000"/><use href="#g2098" x="12600"/><use href="#g205i" x="13200"/><use href="#g2068" x="13800"/><use href="#g209k" x="14400"/><use href="#g206i" x="15000"/><use href="#g2098" x="15600"/></g><g fill="#070607" transform="translate(808 144) scale(0.011 -0.011)"><use href="#g20q3"/><use href="#g20q5" x="600"/></g><rect class="tl-cv3" x="543" y="130" width="420" height="20" fill="#F7F6F2"/><g fill="#070607" transform="translate(544 170) scale(0.011 -0.011)"><use href="#g205i" x="1200"/><use href="#g2095" x="1800"/><use href="#g2095" x="2400"/><use href="#g207z" x="3000"/><use href="#g20ak" x="3600"/><use href="#g200r" x="4200"/><use href="#g207z" x="4800"/><use href="#g205i" x="5400"/><use href="#g209c" x="6000"/><use href="#g209c" x="6600"/><use href="#g206i" x="7200"/><use href="#g209c" x="7800"/><use href="#g20pa" x="8400"/><use href="#g20q5" x="9600"/><use href="#g2067" x="10800"/><use href="#g208e" x="11400"/><use href="#g206e" x="12000"/><use href="#g20ak" x="12600"/><use href="#g20pa" x="13200"/><use href="#g207t" x="14400"/><use href="#g209p" x="15000"/><use href="#g2086" x="15600"/><use href="#g2095" x="16200"/><use href="#g20p8" x="16800"/><use href="#g2068" x="17400"/><use href="#g207z" x="18000"/><use href="#g205i" x="18600"/><use href="#g209c" x="19200"/><use href="#g209c" x="19800"/><use href="#g202m" x="20400"/><use href="#g205i" x="21000"/><use href="#g2086" x="21600"/><use href="#g206i" x="22200"/><use href="#g20q6" x="23400"/><use href="#g20q6" x="24600"/><use href="#g20q4" x="25200"/></g><rect class="tl-cv4" x="543" y="156" width="420" height="20" fill="#F7F6F2"/><g fill="#070607" transform="translate(544 196) scale(0.011 -0.011)"></g><g fill="#524AE9" transform="translate(544 196) scale(0.011 -0.011)"><use href="#g2068"/><use href="#g208e" x="600"/><use href="#g2086" x="1200"/><use href="#g2095" x="1800"/><use href="#g208e" x="2400"/><use href="#g209c" x="3000"/><use href="#g206i" x="3600"/><use href="#g203q" x="4200"/><use href="#g204q" x="4800"/><use href="#g201m" x="5400"/></g><g fill="#070607" transform="translate(610 196) scale(0.011 -0.011)"><use href="#g20q3"/><use href="#g20q5" x="600"/><use href="#g20ad" x="1800"/><use href="#g207d" x="2400"/><use href="#g206i" x="3000"/><use href="#g20ae" x="3600"/><use href="#g200q" x="4200"/><use href="#g208e" x="4800"/><use href="#g20aj" x="5400"/><use href="#g20p9" x="6000"/><use href="#g209c" x="7200"/><use href="#g209k" x="7800"/><use href="#g20ak" x="8400"/><use href="#g207z" x="9000"/><use href="#g206i" x="9600"/><use href="#g20p9" x="10200"/><use href="#g2067" x="11400"/><use href="#g208e" x="12000"/><use href="#g206e" x="12600"/><use href="#g20ak" x="13200"/><use href="#g20q6" x="14400"/><use href="#g20q4" x="15000"/></g><rect class="tl-cv5" x="543" y="182" width="420" height="20" fill="#F7F6F2"/></g><g class="tl-on6"><g transform="translate(1036 92) scale(2.3)"><ellipse class="cv-shadow-2" cx="50" cy="82" rx="22" ry="5" fill="#000"/><g class="cv-jump-1">
    <rect x="22" y="10" width="8" height="14" fill="#FC5000"/>
    <rect x="70" y="10" width="8" height="14" fill="#FC5000"/>
    <rect x="18" y="24" width="64" height="4" fill="#FC5000"/>
    <rect x="14" y="28" width="72" height="32" fill="#FC5000"/>
    <rect x="30" y="34" width="8" height="10" fill="#000000"/>
    <rect x="62" y="34" width="8" height="10" fill="#000000"/>
    <rect x="2" y="36" width="12" height="8" fill="#FC5000"/>
    <rect x="86" y="36" width="12" height="8" fill="#FC5000"/>
    <rect x="24" y="60" width="12" height="14" fill="#FC5000"/>
    <rect x="64" y="60" width="12" height="14" fill="#FC5000"/>
  </g></g></g></g>
  <g class="tl-kf10"><g fill="#5B5B59" transform="translate(540 62) scale(0.011 -0.011)"><use href="#g204r"/><use href="#g201t" x="760"/><use href="#g2001" x="1520"/><use href="#g203x" x="2280"/><use href="#g203q" x="3800"/><use href="#g201t" x="4560"/><use href="#g201w" x="5320"/><use href="#g203j" x="6080"/><use href="#g203q" x="6840"/></g><g fill="#070607" transform="translate(540 122) scale(0.02148 -0.02148)"><use href="#g005o"/><use href="#g00p2" x="996"/><use href="#g00gg" x="2017"/><use href="#g00ix" x="3497"/><use href="#g00nd" x="4569"/><use href="#g00gg" x="5077"/><use href="#g00t0" x="6077"/><use href="#g003r" x="7025"/><use href="#g00wt" x="7489"/><use href="#g00ms" x="8594"/><use href="#g00y8" x="9132"/><use href="#g00v6" x="10154"/><use href="#g00wt" x="11126"/><use href="#g00sp" x="12231"/><use href="#g00nd" x="13258"/><use href="#g00a6" x="13766"/><use href="#g010t" x="14756"/><use href="#g00v6" x="15700"/><use href="#g00t0" x="16672"/></g><g class="tl-on7"><circle cx="552" cy="176" r="12" fill="#FC5000"/><path d="M546.5 176l4 4 7-8" fill="none" stroke="#F7F6F2" stroke-width="2.4" stroke-linecap="round" stroke-linejoin="round"/><g fill="#070607" transform="translate(578 182) scale(0.019 -0.019)"><use href="#g100e"/><use href="#g102f" x="724"/><use href="#g102f" x="1311"/><use href="#g1051" x="2154"/><use href="#g1044" x="2643"/><use href="#g106q" x="3201"/><use href="#g104g" x="3772"/><use href="#g105u" x="4122"/><use href="#g103i" x="4504"/><use href="#g1059" x="5061"/><use href="#g1044" x="5968"/><use href="#g105y" x="6547"/><use href="#g105g" x="7314"/><use href="#g105a" x="7913"/><use href="#g1053" x="8500"/><use href="#g106q" x="8737"/><use href="#g109h" x="9235"/><use href="#g101r" x="9706"/><use href="#g105g" x="10409"/><use href="#g105y" x="11264"/><use href="#g103v" x="11775"/><use href="#g105u" x="12358"/><use href="#g104n" x="12740"/><use href="#g105r" x="12990"/><use href="#g1064" x="13605"/><use href="#g109h" x="14010"/></g></g><g class="tl-on8"><circle cx="552" cy="220" r="12" fill="#FC5000"/><path d="M546.5 220l4 4 7-8" fill="none" stroke="#F7F6F2" stroke-width="2.4" stroke-linecap="round" stroke-linejoin="round"/><g fill="#070607" transform="translate(578 226) scale(0.019 -0.019)"><use href="#g102l"/><use href="#g1044" x="482"/><use href="#g106p" x="1034"/><use href="#g1064" x="1554"/><use href="#g104n" x="2215"/><use href="#g105y" x="2465"/><use href="#g105g" x="3232"/><use href="#g1068" x="3831"/><use href="#g1064" x="4418"/><use href="#g1053" x="4823"/><use href="#g104n" x="5060"/><use href="#g105a" x="5310"/><use href="#g1044" x="5897"/><use href="#g1040" x="6476"/><use href="#g104h" x="7368"/><use href="#g1053" x="7938"/><use href="#g106q" x="8175"/><use href="#g105r" x="8746"/><use href="#g104l" x="9381"/><use href="#g105y" x="9969"/><use href="#g109h" x="10480"/><use href="#g101r" x="10951"/><use href="#g105g" x="11654"/><use href="#g104g" x="12509"/><use href="#g105g" x="12839"/><use href="#g105a" x="13438"/><use href="#g1064" x="14025"/><use href="#g1064" x="14686"/><use href="#g105g" x="15077"/><use href="#g1053" x="15932"/><use href="#g105g" x="16169"/><use href="#g103i" x="16768"/><use href="#g1040" x="17325"/><use href="#g109h" x="17961"/></g></g><g class="tl-on9"><circle cx="552" cy="264" r="12" fill="#FC5000"/><path d="M546.5 264l4 4 7-8" fill="none" stroke="#F7F6F2" stroke-width="2.4" stroke-linecap="round" stroke-linejoin="round"/><g fill="#070607" transform="translate(578 270) scale(0.019 -0.019)"><use href="#g102b"/><use href="#g1044" x="576"/><use href="#g1040" x="1155"/><use href="#g1068" x="1791"/><use href="#g103v" x="2378"/><use href="#g1044" x="2961"/><use href="#g1040" x="3540"/><use href="#g1059" x="4432"/><use href="#g105g" x="5339"/><use href="#g1064" x="5918"/><use href="#g104n" x="6323"/><use href="#g105g" x="6573"/><use href="#g105a" x="7172"/><use href="#g105u" x="8015"/><use href="#g1044" x="8381"/><use href="#g105y" x="8960"/><use href="#g1064" x="9451"/><use href="#g105y" x="9856"/><use href="#g105g" x="10623"/><use href="#g105a" x="11222"/><use href="#g1064" x="12065"/><use href="#g104l" x="12470"/><use href="#g104n" x="13058"/><use href="#g105y" x="13308"/><use href="#g104g" x="14075"/><use href="#g105u" x="14425"/><use href="#g103i" x="14807"/><use href="#g1059" x="15364"/><use href="#g1044" x="16271"/><use href="#g109h" x="16850"/></g></g></g>
  <rect width="500" height="360" fill="#070607"/><g fill="#F7F6F2" opacity=".62" transform="translate(40 52) scale(0.0125 -0.0125)"><use href="#g202s"/><use href="#g203j" x="760"/><use href="#g2011" x="1520"/><use href="#g202m" x="2280"/><use href="#g203q" x="3800"/><use href="#g202s" x="4560"/><use href="#g2042" x="5320"/><use href="#g203m" x="6080"/><use href="#g200r" x="6840"/><use href="#g2011" x="7600"/><use href="#g20ph" x="9120"/><use href="#g203q" x="10640"/><use href="#g204q" x="11400"/><use href="#g201m" x="12160"/><use href="#g203x" x="13680"/><use href="#g202s" x="14440"/><use href="#g202s" x="15200"/><use href="#g202f" x="15960"/><use href="#g202d" x="16720"/><use href="#g201w" x="17480"/><use href="#g203x" x="18240"/></g><rect x="40" y="92" width="44" height="44" fill="#FC5000"/><g fill="#F7F6F2" transform="translate(100 134) scale(0.02539 -0.02539)"><use href="#g0004"/><use href="#g00p2" x="994"/><use href="#g00lo" x="2015"/><use href="#g00og" x="2513"/><use href="#g00a6" x="4066"/><use href="#g00wt" x="5056"/><use href="#g00lo" x="5681"/><use href="#g00q2" x="6179"/><use href="#g00p2" x="7196"/><use href="#g007f" x="8697"/><use href="#g00wt" x="9642"/><use href="#g00y8" x="10267"/><use href="#g00f9" x="11289"/><use href="#g00lo" x="12309"/><use href="#g00q2" x="12807"/></g><g fill="#F7F6F2" transform="translate(40 192) scale(0.024 -0.024)"><use href="#g100j"/><use href="#g1044" x="694"/><use href="#g105y" x="1273"/><use href="#g103v" x="1784"/><use href="#g105u" x="2367"/><use href="#g104n" x="2749"/><use href="#g103u" x="2999"/><use href="#g1044" x="3634"/><use href="#g104n" x="4469"/><use href="#g1064" x="4719"/><use href="#g109h" x="5124"/><use href="#g1010" x="5595"/><use href="#g1044" x="6359"/><use href="#g1064" x="6924"/><use href="#g103i" x="7585"/><use href="#g1053" x="8398"/><use href="#g105g" x="8635"/><use href="#g105g" x="9234"/><use href="#g105r" x="9833"/><use href="#g104n" x="10468"/><use href="#g105a" x="10718"/><use href="#g104h" x="11305"/><use href="#g102f" x="12131"/><use href="#g1030" x="12698"/><use href="#g1010" x="13352"/><use href="#g109h" x="14116"/></g><g fill="#F7F6F2" opacity=".72" transform="translate(40 224) scale(0.0165 -0.0165)"><use href="#g101x"/><use href="#g105a" x="777"/><use href="#g1044" x="1364"/><use href="#g107x" x="2199"/><use href="#g1053" x="2777"/><use href="#g1044" x="3014"/><use href="#g1064" x="3849"/><use href="#g104l" x="4254"/><use href="#g103i" x="4842"/><use href="#g1064" x="5388"/><use href="#g105r" x="6049"/><use href="#g1053" x="6684"/><use href="#g103i" x="6921"/><use href="#g106q" x="7462"/><use href="#g105y" x="8006"/><use href="#g104n" x="8773"/><use href="#g105a" x="9023"/><use href="#g105y" x="9610"/><use href="#g104n" x="10121"/><use href="#g1040" x="10371"/><use href="#g1044" x="11007"/><use href="#g103i" x="11842"/><use href="#g102b" x="12655"/><use href="#g100n" x="13261"/><use href="#g1001" x="13832"/><use href="#g100j" x="14510"/><use href="#g101q" x="15204"/><use href="#g100n" x="16059"/><use href="#g109h" x="16630"/></g><rect x="40" y="295.5" width="50" height="30" rx="15" fill="none" stroke="#F7F6F2" stroke-width="1.2" stroke-opacity=".4"/><g fill="#F7F6F2" transform="translate(53 315) scale(0.012 -0.012)"><use href="#g202l"/><use href="#g201w" x="700"/><use href="#g203x" x="1400"/></g><rect x="100" y="295.5" width="100.4" height="30" rx="15" fill="none" stroke="#F7F6F2" stroke-width="1.2" stroke-opacity=".4"/><g fill="#F7F6F2" transform="translate(113 315) scale(0.012 -0.012)"><use href="#g202m"/><use href="#g202s" x="700"/><use href="#g203q" x="2100"/><use href="#g200r" x="2800"/><use href="#g203m" x="3500"/><use href="#g201w" x="4200"/><use href="#g203j" x="4900"/><use href="#g203x" x="5600"/></g>
</g>
</svg>
